<?xml version="1.0" encoding="UTF-8" standalone="no"?>
<!-- Created with Inkscape (http://www.inkscape.org/) -->

<svg
   width="120mm"
   height="120mm"
   viewBox="0 0 120 120"
   version="1.1"
   id="svg1"
   xmlns:xlink="http://www.w3.org/1999/xlink"
   xmlns="http://www.w3.org/2000/svg"
   xmlns:svg="http://www.w3.org/2000/svg">
  <defs
     id="defs1">
    <linearGradient
       id="linearGradient30">
      <stop
         style="stop-color:#ffd737;stop-opacity:1;"
         offset="0"
         id="stop30" />
      <stop
         style="stop-color:#ff8737;stop-opacity:1;"
         offset="0.5289408"
         id="stop32" />
      <stop
         style="stop-color:#ff3794;stop-opacity:1;"
         offset="1"
         id="stop31" />
    </linearGradient>
    <linearGradient
       xlink:href="#linearGradient30"
       id="linearGradient31"
       x1="20"
       y1="100"
       x2="102.73592"
       y2="19.685135"
       gradientUnits="userSpaceOnUse" />
    <linearGradient
       xlink:href="#linearGradient30"
       id="linearGradient3"
       x1="20"
       y1="100"
       x2="102.73592"
       y2="19.685135"
       gradientUnits="userSpaceOnUse" />
    <linearGradient
       xlink:href="#linearGradient30"
       id="linearGradient4"
       gradientUnits="userSpaceOnUse"
       x1="20"
       y1="100"
       x2="102.73592"
       y2="19.685135" />
  </defs>
  <g
     id="layer1">
    <rect
       style="display:none;fill:url(#linearGradient3);fill-opacity:1;stroke-width:2;stroke-linejoin:round"
       id="rect1"
       width="120"
       height="120"
       x="0"
       y="0" />
    <rect
       style="display:inline;fill:url(#linearGradient4);fill-opacity:1;stroke-width:2;stroke-linejoin:round"
       id="rect3"
       width="120"
       height="120"
       x="0"
       y="0"
       ry="30" />
    <circle
       style="display:inline;fill:url(#linearGradient31);fill-opacity:1;stroke-width:2;stroke-linejoin:round"
       id="path2"
       cx="60"
       cy="60"
       r="60" />
    <g
       id="g19"
       style="fill:#000000;fill-opacity:1">
      <path
         style="fill:#000000;fill-opacity:1;stroke-width:2;stroke-linejoin:round"
         id="path3"
         d="m 36.834138,101.55568 c 0.06887,-0.8059 0.257003,-1.600667 0.435369,-2.388845 0.228473,-1.102426 0.457218,-2.203873 0.732359,-3.295692 0.422629,-1.350286 0.83752,-2.710725 1.401556,-4.009785 0.467198,-1.048967 1.048406,-2.042779 1.700212,-2.986637 0.508934,-0.671037 0.950002,-1.388232 1.444699,-2.069553 0.442347,-0.55245 0.874501,-1.10758 1.287555,-1.681805 0.111517,-0.114898 0.227169,-0.222692 0.33532,-0.340881 0,0 -3.363952,-2.041509 -3.363952,-2.041509 v 0 c -0.121478,0.132106 -0.253661,0.25533 -0.350578,0.40795 -0.351404,0.600176 -0.737169,1.171657 -1.175867,1.713786 -0.529521,0.664106 -0.994889,1.374182 -1.467458,2.079463 -0.653982,0.971333 -1.148935,2.048441 -1.621838,3.116638 -0.548542,1.319811 -1.077587,2.648133 -1.486982,4.018929 -0.323694,1.080838 -0.515916,2.189554 -0.772263,3.287389 -0.199904,0.771882 -0.388514,1.546498 -0.57431,2.32179 z" />
      <path
         style="fill:#000000;fill-opacity:1;stroke-width:2;stroke-linejoin:round"
         id="path4"
         d="m 77.323298,86.056331 c 0.316421,0.83071 0.663321,1.647026 0.943901,2.491836 0.343054,0.986305 0.770525,1.935379 1.085699,2.932898 0.365811,1.099288 0.620454,2.223243 0.750446,3.373572 0.08942,0.822873 0.06249,1.6509 0.113792,2.475966 0.03127,0.446095 0.05847,0.892447 0.08213,1.339003 0,0 3.476554,1.738984 3.476554,1.738984 v 0 c -0.04302,-0.452059 -0.09449,-0.903305 -0.129892,-1.356068 -0.04583,-0.840584 -0.04288,-1.684288 -0.151953,-2.521477 -0.150849,-1.168175 -0.363241,-2.321621 -0.733491,-3.44329 -0.312261,-0.985351 -0.652251,-1.956461 -1.038558,-2.91502 -0.259782,-0.802667 -0.55171,-1.595147 -0.872451,-2.375535 z" />
      <path
         style="fill:#000000;fill-opacity:1;stroke-width:2;stroke-linejoin:round"
         id="path5"
         d="m 49.623,74.895402 c -0.797663,0.356846 -1.670888,0.506201 -2.524093,0.667835 -1.713489,0.33959 -3.448547,0.553765 -5.188034,0.703696 -1.151504,0.0886 -2.304606,0.087 -3.455242,0.182899 -0.887158,0.04395 -1.76912,0.118647 -2.652498,0.208282 -0.856178,0.112554 -1.702146,0.278517 -2.561817,0.364281 -0.999369,0.09145 -2.004007,0.0887 -3.006588,0.08731 -0.911876,0.06513 -1.790041,-0.126923 -2.656662,-0.389604 -1.060183,-0.447747 -2.085715,-0.978898 -3.089626,-1.540793 5.473323,3.366574 2.738886,1.596821 1.557027,0.68657 -0.631558,-0.447871 -1.106143,-1.049595 -1.58026,-1.653114 -0.842154,-1.059834 -1.536437,-2.225286 -2.217142,-3.392575 -0.567003,-0.95731 -1.162025,-1.891906 -1.797486,-2.804721 -0.775434,-1.229463 -1.320918,-2.579561 -1.845039,-3.929433 -0.437144,-1.191988 -0.923613,-2.366192 -1.209869,-3.60549 -0.251777,-1.288918 -0.503684,-2.57823 -0.679221,-3.880054 -0.194199,-1.293741 -0.112486,-2.597023 -0.02537,-3.89555 0.04429,-1.197264 0.273852,-2.372627 0.441972,-3.555188 0.218772,-1.181129 0.395949,-2.368777 0.669145,-3.539011 0.422812,-1.450163 1.089419,-2.825226 1.834962,-4.135429 0.474014,-0.857846 0.997382,-1.687915 1.570613,-2.482758 0.4102,-0.595439 0.870896,-1.150583 1.347988,-1.692883 0.566278,-0.664001 1.298345,-1.143183 1.990806,-1.661748 0.464487,-0.347186 0.98313,-0.61051 1.470314,-0.920871 0.247497,-0.157668 0.484769,-0.330952 0.731286,-0.490149 0.695931,-0.551789 1.498886,-0.937292 2.237481,-1.421622 0.581726,-0.445543 1.272524,-0.651351 1.970839,-0.83116 0.906817,-0.257212 1.826445,-0.456829 2.726793,-0.737774 1.120291,-0.255596 2.191599,-0.676725 3.297613,-0.979342 0.795689,-0.213429 1.593834,-0.418672 2.395254,-0.609415 0.650455,-0.176048 1.305359,-0.3414 1.965418,-0.478184 0.44174,-0.124913 0.878647,-0.26651 1.329227,-0.355748 0.242231,-0.031 0.480015,-0.05691 0.718529,-0.109517 0,0 -3.207591,-2.236589 -3.207591,-2.236589 v 0 c -0.239213,0.04064 -0.479886,0.07154 -0.717609,0.120743 -0.445426,0.107299 -0.883877,0.23753 -1.323215,0.366863 -0.640432,0.169093 -1.282483,0.331714 -1.919346,0.513916 -0.799341,0.199927 -1.603468,0.382535 -2.388052,0.637038 -1.079291,0.344778 -2.130441,0.779822 -3.245168,1.009012 -0.93514,0.236233 -1.881857,0.420656 -2.811661,0.677738 -0.722796,0.214866 -1.419713,0.468461 -2.026372,0.932672 -0.745218,0.46654 -1.478469,0.948452 -2.210138,1.435931 -0.749299,0.462082 -1.488804,0.936509 -2.214936,1.43429 -0.723254,0.520232 -1.455168,1.048793 -2.057933,1.709426 -0.506665,0.536466 -0.960348,1.124778 -1.361334,1.74354 -0.555665,0.825646 -1.074993,1.671823 -1.5151,2.566006 -0.693941,1.375185 -1.343405,2.781028 -1.857166,4.233773 -0.281016,1.17127 -0.555989,2.347031 -0.756571,3.534394 -0.152563,1.202309 -0.329968,2.402456 -0.381976,3.615073 -0.03155,0.480298 -0.05204,0.961284 -0.08423,1.44154 -0.05586,0.833326 -0.12525,1.671349 0.03285,2.500231 0.183477,1.307073 0.496406,2.590339 0.657365,3.901106 0.101918,0.50659 0.113647,0.641395 0.274477,1.134115 0.282548,0.865617 0.708473,1.680406 0.970442,2.554275 0.530474,1.345792 1.053724,2.698599 1.75242,3.968617 0.09458,0.160859 0.179667,0.327689 0.283734,0.482579 0.183999,0.273857 0.43285,0.500923 0.590156,0.794602 0.32767,0.500896 0.605946,1.034672 0.955802,1.521688 0.326054,0.575786 0.690248,1.118224 1.034411,1.682072 0.1239,0.202989 0.222653,0.420913 0.350876,0.6212 0.247617,0.386781 0.562913,0.727464 0.796524,1.124182 0.429282,0.598813 0.818029,1.262129 1.43108,1.690714 0.24667,0.213178 0.513387,0.384368 0.770627,0.583171 1.382991,1.068811 2.201343,1.54192 4.235735,2.565183 1.017609,0.538292 2.041012,1.081768 3.128888,1.465482 0.907582,0.24465 1.814346,0.399219 2.758617,0.328618 1.005896,-0.02204 2.011519,-0.05999 3.015578,-0.125775 0.863947,-0.09686 1.716736,-0.260824 2.581905,-0.346784 0.870305,-0.08421 1.738453,-0.187426 2.612739,-0.227671 1.127792,-0.08605 2.259656,-0.11471 3.383804,-0.24542 1.741575,-0.217763 3.477533,-0.478917 5.216443,-0.716534 0.930772,-0.157493 1.869755,-0.295082 2.766814,-0.600051 z" />
      <path
         style="fill:#000000;fill-opacity:1;stroke-width:2;stroke-linejoin:round"
         id="path6"
         d="m 41.775356,28.690892 c 0.565848,0.0061 1.120396,-0.103796 1.684898,-0.114606 0.566931,-0.0035 1.128871,0.02191 1.690182,0.09747 0.0897,0.0118 0.18052,0.01696 0.269089,0.03541 0.1508,0.0314 0.295767,0.08705 0.446173,0.120277 0.226004,0.04993 0.449852,0.0738 0.674049,0.132554 0.272349,0.09593 0.525585,0.222896 0.784323,0.346826 0.06238,0.02988 0.116306,0.07767 0.181703,0.100182 0.08847,0.03045 0.183234,0.03797 0.274854,0.05696 0.773433,0.114398 1.481098,0.457689 2.208842,0.724746 0.618252,0.269457 1.23588,0.543325 1.845072,0.832499 0.479476,0.195588 0.971151,0.349755 1.453587,0.535889 0.06324,0.01963 0.126473,0.03928 0.189711,0.05892 0,0 -3.096482,-2.40793 -3.096482,-2.40793 v 0 c -0.05831,-0.02151 -0.116626,-0.043 -0.174937,-0.0645 -0.47548,-0.175157 -0.964949,-0.314013 -1.420413,-0.541255 -0.606158,-0.259573 -1.19616,-0.5573 -1.818365,-0.778349 -0.741847,-0.281101 -1.486127,-0.551651 -2.257041,-0.742699 -0.416335,-0.189031 -0.827225,-0.398041 -1.280398,-0.485047 -0.46545,-0.08388 -0.92319,-0.210191 -1.396424,-0.244739 -0.566642,-0.05633 -1.135475,-0.06784 -1.704059,-0.02945 -0.585137,0.04327 -1.169839,0.0853 -1.756563,0.0403 z" />
      <path
         style="fill:#000000;fill-opacity:1;stroke-width:2;stroke-linejoin:round"
         id="path7"
         d="m 37.93428,29.952415 c 0.318257,-0.64942 0.727956,-1.238858 1.143664,-1.828265 0.464683,-0.615212 0.943748,-1.217197 1.469308,-1.781558 0.411155,-0.402329 0.758632,-0.845082 1.087504,-1.313676 0.393999,-0.47291 0.780473,-0.950583 1.167167,-1.430097 0.651074,-0.750397 1.288029,-1.512282 1.923669,-2.275595 0.504354,-0.542762 1.019281,-1.074339 1.533663,-1.607725 0.353586,-0.380928 0.695923,-0.76415 1.073449,-1.120764 0.302006,-0.296111 0.581149,-0.612732 0.8774,-0.914826 0.33796,-0.302338 0.610968,-0.672588 0.965065,-0.956334 0.321305,-0.220434 0.533715,-0.16944 0.890683,-0.102044 0.09933,0.08524 0.237823,0.07693 0.347641,0.135235 0.07742,0.04111 0.290643,0.195487 0.214231,0.152524 -1.018347,-0.572585 -2.02039,-1.173958 -3.041243,-1.742067 -0.126976,-0.07066 0.239565,0.164573 0.357971,0.248812 0.14133,0.100548 0.280805,0.203682 0.421206,0.305523 1.052513,0.756636 2.100035,1.52013 3.133754,2.302272 0.840481,0.638781 1.699451,1.255813 2.462091,1.988198 0.614143,0.625548 1.150284,1.322644 1.692939,2.009704 0.53912,0.770411 1.149231,1.475869 1.818778,2.134619 0.526663,0.514088 1.070342,1.013406 1.55453,1.568773 0.217474,0.31725 0.484251,0.598064 0.700847,0.915041 0.178911,0.277585 0.390908,0.533712 0.626835,0.764577 0.26053,0.231087 0.492418,0.481732 0.688517,0.768842 0,0 3.602969,1.569186 3.602969,1.569186 v 0 c -0.100026,-0.142925 -0.180007,-0.299683 -0.279411,-0.441841 -0.137327,-0.196387 -0.08819,-0.08906 -0.254553,-0.258149 -0.04581,-0.04656 -0.08412,-0.09996 -0.12618,-0.149934 -0.240046,-0.209968 -0.453673,-0.43013 -0.658524,-0.673962 -0.06312,-0.100793 -0.116274,-0.207868 -0.183494,-0.305972 -0.159427,-0.23268 -0.403021,-0.401117 -0.532947,-0.658683 -0.463569,-0.613715 -1.078005,-1.098352 -1.617329,-1.642659 -0.219763,-0.216252 -0.449951,-0.421919 -0.665734,-0.642142 -0.325562,-0.332259 -0.603134,-0.692322 -0.882597,-1.062126 -0.09883,-0.130775 -0.201502,-0.258596 -0.302255,-0.387893 -0.528365,-0.698405 -1.054018,-1.403187 -1.649045,-2.0467 -0.770556,-0.77881 -1.649052,-1.434074 -2.538669,-2.070341 -1.006628,-0.778701 -2.038898,-1.523434 -3.058962,-2.284364 -0.131757,-0.09407 -0.267358,-0.182978 -0.395274,-0.282212 -0.10759,-0.08347 -0.194066,-0.194891 -0.310576,-0.265372 -0.564988,-0.341781 -2.780199,-2.084166 -4.271377,-2.286998 -0.409216,-0.01566 -0.771218,0.08498 -1.077209,0.368758 -0.332568,0.316598 -0.610518,0.685312 -0.959231,0.986346 -0.306134,0.293036 -0.5861,0.607005 -0.884751,0.907284 -0.367464,0.369898 -0.694777,0.770324 -1.042588,1.158191 -0.507619,0.547151 -1.021876,1.087503 -1.498261,1.662689 -0.616156,0.776246 -1.254284,1.532931 -1.930969,2.257218 -0.431657,0.464099 -0.859131,0.93289 -1.260099,1.423028 -0.04521,0.0658 -0.09043,0.131596 -0.135644,0.197394 -0.03541,0.06085 -0.06741,0.12381 -0.10622,0.182549 -0.221226,0.33485 -0.526163,0.60072 -0.769159,0.918277 -0.526714,0.583102 -1.017,1.192647 -1.470303,1.834952 -0.428501,0.589666 -0.826156,1.201671 -1.263812,1.784006 z" />
      <path
         style="fill:#000000;fill-opacity:1;stroke-width:2;stroke-linejoin:round"
         id="path8"
         d="m 65.302849,30.663716 c 2.694977,0.521724 5.381032,1.08191 8.083825,1.564039 1.999274,0.346575 3.987713,0.773623 6.001853,1.028912 0.356042,0.03997 0.713716,0.05806 1.071462,0.07284 0,0 -3.136273,-2.294033 -3.136273,-2.294033 v 0 c -0.329366,-0.0072 -0.658775,-0.01672 -0.987102,-0.0462 -1.871705,-0.159175 -3.730974,-0.433376 -5.582796,-0.74569 -2.873091,-0.503084 -5.716621,-1.145956 -8.531082,-1.913245 z" />
      <path
         style="fill:#000000;fill-opacity:1;stroke-width:2;stroke-linejoin:round"
         id="path9"
         d="m 81.346282,32.931338 c 0.437449,-0.728705 1.04725,-1.328351 1.592176,-1.973826 0.747358,-1.016035 1.533805,-1.99094 2.40267,-2.905572 1.135716,-1.09732 2.393593,-2.060744 3.679481,-2.974112 0.428689,-0.326261 0.940022,-0.546773 1.346936,-0.900474 0.265768,-0.176744 0.542626,-0.339597 0.820737,-0.498984 0.380701,-0.157901 0.733642,-0.356629 1.080397,-0.576763 0.356949,-0.202506 0.724215,-0.383291 1.095703,-0.558103 0.378439,-0.08978 0.68897,-0.294316 1.017977,-0.488604 0.414369,-0.164946 0.904332,-0.114594 1.320982,0.02001 1.344822,0.790048 -1.074272,-0.632697 -2.8775,-1.624465 -0.09905,-0.05448 0.187241,0.127471 0.273466,0.200579 0.365776,0.310134 0.594765,0.706846 0.833014,1.115069 0.568619,1.031851 1.060696,2.095397 1.419685,3.217646 0.318101,0.914527 0.417873,1.877339 0.578046,2.826156 0.12165,0.783452 0.315979,1.551588 0.658294,2.267712 0.364551,0.593619 0.714444,1.17997 0.973161,1.828239 0.316066,0.936953 0.662572,1.863772 0.969492,2.80372 0.265922,0.735677 0.497234,1.476883 0.640728,2.246284 0.09292,0.600625 0.109175,1.207225 0.06637,1.812369 -0.0313,0.291835 -0.0564,0.584279 -0.0833,0.876538 0,0 3.448013,1.79146 3.448013,1.79146 v 0 c 0.0196,-0.292989 0.0429,-0.585584 0.074,-0.877618 0.01,-0.09293 0.0566,-0.519647 0.0585,-0.614871 0.008,-0.431699 -0.0651,-0.866584 -0.1022,-1.295114 -0.11586,-0.795647 -0.3569,-1.563293 -0.64478,-2.313019 -0.30974,-0.944658 -0.69474,-1.863685 -0.97708,-2.817717 -0.0851,-0.273749 -0.14685,-0.555583 -0.25241,-0.822095 -0.1511,-0.381479 -0.46749,-0.676032 -0.64999,-1.039889 -0.410143,-0.660538 -0.612039,-1.421466 -0.755123,-2.181088 -0.199585,-0.958051 -0.226123,-1.950077 -0.574344,-2.87502 -0.169119,-0.540211 -0.352793,-1.069411 -0.582374,-1.58769 -0.414843,-0.936497 -0.112197,-0.203611 -0.561618,-1.128083 -0.09101,-0.187215 -0.170146,-0.379976 -0.255217,-0.569964 -0.11856,-0.241125 -0.329218,-0.688212 -0.478372,-0.92323 -0.06977,-0.109936 -0.335209,-0.450332 -0.457975,-0.524638 -3.36735,-2.038131 -2.267858,-1.706299 -3.845423,-2.147503 -0.515982,-0.0566 -1.048959,-0.07168 -1.509482,0.203846 -0.316807,0.190357 -0.657122,0.314785 -0.992127,0.468507 -0.378428,0.195388 -0.775909,0.355531 -1.133459,0.5889 -0.334359,0.222916 -0.703611,0.375735 -1.06045,0.558723 -0.301791,0.165326 -0.611679,0.330744 -0.873048,0.55578 -0.397587,0.327426 -0.820706,0.62536 -1.20795,0.966407 -1.211746,1.016255 -2.405054,2.054398 -3.614052,3.073949 -0.246528,0.240854 -0.866653,0.838519 -1.109636,1.106396 -0.505156,0.556908 -0.914371,1.193893 -1.41886,1.751174 -0.567105,0.638474 -1.121248,1.289661 -1.713177,1.905315 z" />
      <path
         style="fill:#000000;fill-opacity:1;stroke-width:2;stroke-linejoin:round"
         id="path10"
         d="m 98.911136,38.456343 c 0.541444,1.020532 0.976903,2.085012 1.348834,3.177349 0.51323,1.557214 0.8958,3.151833 1.34503,4.728041 0.37819,1.519087 0.74213,3.049183 0.98317,4.597016 0.2248,1.78076 0.41142,3.565546 0.63672,5.346356 0.16593,1.488697 0.29567,2.984622 0.21498,4.482251 -0.14974,1.296538 -0.29238,2.601301 -0.61159,3.868722 -0.35511,1.376968 -1.11029,2.581708 -1.86567,3.76742 -0.734,1.132282 -1.574229,2.18617 -2.418337,3.236434 -0.589262,0.814527 -1.233292,1.583774 -1.885667,2.348145 -0.565089,0.642041 -1.235133,1.159727 -2.010148,1.516428 -0.398777,0.116633 -0.78762,0.32767 -1.205788,0.375073 -0.234032,0.02653 -0.509344,-0.01183 -0.738389,-0.03223 -1.238075,-0.100092 -2.446941,-0.369184 -3.650649,-0.662501 -0.685036,-0.129715 -1.331455,-0.411679 -2.005838,-0.576334 -0.287981,-0.07031 -0.582089,-0.112789 -0.872024,-0.174556 -0.846014,-0.199388 -1.702433,-0.327875 -2.566599,-0.42032 -0.680807,-0.128934 -1.375735,-0.151577 -2.059628,-0.252894 -0.757332,-0.09903 -1.490871,-0.311732 -2.23788,-0.463375 -0.430522,-0.08766 -0.869013,-0.108966 -1.306968,-0.115382 -0.411032,-0.109414 -0.842187,-0.09082 -1.25372,-0.182613 -1.197427,-0.616429 -2.749433,-1.575941 2.92114,1.681443 0,0 -3.65466,-1.469925 -3.65466,-1.469925 v 0 c 1.461355,0.862915 2.370728,1.897272 3.857252,2.135587 0.434496,0.04551 0.864886,0.127027 1.301014,0.152861 0.412401,0.01707 0.823492,0.05605 1.228273,0.140155 0.746442,0.149487 1.488517,0.321667 2.242201,0.433207 0.682572,0.07807 1.367456,0.134932 2.047811,0.232699 0.851025,0.09057 1.687171,0.255148 2.522691,0.438639 0.945468,0.208299 1.870316,0.496859 2.814953,0.710033 1.240594,0.27331 2.487265,0.549214 3.754971,0.659419 0.372817,0.01024 0.49969,0.03578 0.858864,-0.03483 0.423627,-0.08328 0.820828,-0.302837 1.220727,-0.453774 0.790337,-0.41129 1.446842,-1.02426 2.042808,-1.681004 0.65197,-0.770538 1.33656,-1.514327 1.86739,-2.377239 0.81872,-1.07869 1.64861,-2.153158 2.37069,-3.300211 0.80646,-1.19393 1.56675,-2.455937 1.97288,-3.847653 0.33787,-1.294445 0.46586,-2.622227 0.61437,-3.949541 0.0329,-0.567478 0.0648,-0.91353 0.0501,-1.483651 -0.0265,-1.033243 -0.18006,-2.063126 -0.2951,-3.088338 -0.22222,-1.772227 -0.47049,-3.542401 -0.57408,-5.327219 -0.0534,-0.345646 -0.17001,-1.132652 -0.24225,-1.472472 -0.22785,-1.071859 -0.55321,-2.124578 -0.78583,-3.195606 -0.43773,-1.56736 -0.77079,-3.162432 -1.27888,-4.710126 -0.31673,-1.070612 -0.69432,-2.098699 -1.14458,-3.119678 z" />
      <path
         style="display:inline;opacity:1;fill:#000000;fill-opacity:1;stroke-width:2;stroke-linejoin:round"
         id="path11"
         d="m 35.461807,38.613077 c -0.442782,0.117763 -0.904078,0.114136 -1.351192,0.20361 -0.644885,0.07348 -1.270498,0.245779 -1.905474,0.372689 -0.664953,0.164087 -1.33872,0.288912 -1.994379,0.488236 -0.706908,0.191542 -1.379982,0.511614 -2.014606,0.873493 -0.727136,0.396052 -1.411277,0.829302 -2.065016,1.337506 -0.472724,0.381812 -0.965822,0.737814 -1.386923,1.177914 -0.650167,0.851776 -1.162248,1.792235 -1.693683,2.720258 -0.642136,1.250699 -1.178598,2.547421 -1.636306,3.875127 -0.316022,0.806675 -0.424023,1.629656 -0.349564,2.486853 0.113332,0.914249 0.23176,1.832512 0.492972,2.717506 0.235714,0.742405 0.563111,1.442853 0.922906,2.131137 0.296668,0.605332 0.68686,1.15751 1.075045,1.706425 0.457954,0.647311 0.984837,1.238512 1.539793,1.803183 0.462333,0.475501 0.980827,0.890151 1.476658,1.329277 1.265097,1.140092 2.747089,1.759985 4.279347,2.644606 0.318891,0.184108 0.222393,0.131098 0.577585,0.260929 0.971383,0.211381 1.952673,0.351838 2.941386,0.457423 1.027705,0.08112 2.065877,0.08966 3.090056,-0.03513 0.362971,-0.0649 0.762762,-0.04143 1.098846,-0.218649 0.179565,-0.09468 0.258093,-0.19112 0.399722,-0.329753 0.218477,-0.304856 0.561874,-0.480656 0.81988,-0.743175 0.16075,-0.163566 0.300636,-0.346554 0.457552,-0.5138 0.303218,-0.308702 0.699077,-0.496975 1.017148,-0.788072 0.06245,-0.05716 0.301059,-0.315381 0.358124,-0.376547 0.341072,-0.469101 0.694468,-0.934728 0.999647,-1.427305 0.373985,-0.527177 0.72,-1.07314 1.077983,-1.611165 0.27694,-0.435686 0.532133,-0.88374 0.807718,-1.320255 0.33715,-0.520827 0.623763,-1.077764 0.883481,-1.641332 0.344188,-0.77412 0.593923,-1.578147 0.783238,-2.402498 0.191741,-0.859391 0.343143,-1.727121 0.496908,-2.594044 0.205751,-1.11416 0.287917,-2.237618 0.275204,-3.369276 0.03747,-1.12741 -0.10786,-2.225161 -0.386226,-3.313924 -0.202985,-0.823513 -0.627583,-1.54703 -1.120878,-2.225919 -0.441732,-0.617953 -0.961453,-1.157898 -1.579157,-1.598326 -1.568194,-1.150636 -3.150637,-1.988895 -4.907492,-2.662839 -0.400574,-0.256555 -0.816322,-0.369408 -1.285925,-0.379383 -0.686956,-0.05635 -1.348484,0.139766 -2.00819,0.298141 -0.667957,0.160906 -1.288497,0.460565 -1.886591,0.794173 -0.341291,0.237834 -0.685347,0.470397 -1.035872,0.694343 0,0 3.226792,2.070608 3.226792,2.070608 v 0 c 0.346466,-0.230791 0.688033,-0.473572 1.070565,-0.642969 0.562541,-0.323683 1.150659,-0.587634 1.787559,-0.728364 0.646258,-0.149018 1.304827,-0.263144 1.968542,-0.160956 0.430792,0.09242 0.816999,0.276979 1.218462,0.454681 0.270007,0.109585 0.544394,0.211794 0.806088,0.34063 0.07672,0.03777 0.299908,0.164364 0.226084,0.121213 -3.505346,-2.048851 -4.026527,-2.373301 -2.779361,-1.604811 0.647147,0.390501 1.210159,0.866703 1.655172,1.485093 0.165611,0.214937 0.346139,0.419118 0.497272,0.644472 0.30163,0.449768 0.521499,0.957778 0.706937,1.463717 0.04549,0.15053 0.246817,0.808445 0.278625,0.948878 0.170156,0.751229 0.191071,1.536684 0.210225,2.302465 -0.0011,0.208497 -0.0013,0.981059 -0.01519,1.203256 -0.04329,0.696796 -0.175852,1.387599 -0.304204,2.072283 -0.130059,0.863687 -0.314217,1.71673 -0.478838,2.574176 -0.190537,0.792991 -0.416523,1.578459 -0.775425,2.314128 -0.265234,0.545364 -0.560411,1.074457 -0.895172,1.58051 -0.274797,0.43553 -0.537009,0.875194 -0.784091,1.327655 -0.34813,0.546296 -0.70522,1.087176 -1.085768,1.611561 -0.303286,0.463643 -0.629938,0.916001 -0.970994,1.352071 -0.113914,0.113059 -0.219247,0.234641 -0.334687,0.346144 -0.317037,0.306226 -0.70943,0.522745 -1.018498,0.838605 -0.409321,0.432834 -0.860269,0.811374 -1.304586,1.207079 -0.371396,0.310306 -0.863627,0.29794 -1.321671,0.378571 -0.981225,0.130839 -1.975141,0.142225 -2.958555,0.01625 -0.997233,-0.125984 -2.005319,-0.271862 -2.955919,-0.609738 -1.200759,-0.608253 -2.962406,-1.705006 2.488671,1.475148 0.08405,0.04904 -0.173763,-0.08877 -0.254257,-0.143452 C 30.46495,63.561756 30.329965,63.410475 30.16432,63.300432 29.663556,62.850175 29.137427,62.429699 28.642101,61.974293 28.086357,61.437654 27.546236,60.87942 27.108269,60.2401 26.707854,59.710044 26.31139,59.165262 25.999184,58.578847 25.825289,58.256762 25.622145,57.940315 25.470112,57.6073 25.303389,57.242106 25.187783,56.85169 25.012707,56.48957 24.700889,55.651968 24.59991,54.743815 24.49711,53.85948 c -0.07525,-0.823863 -0.03179,-1.585278 0.223808,-2.381684 0.389776,-1.321327 0.863228,-2.627617 1.515881,-3.843491 0.558616,-0.881597 1.150055,-1.753952 1.83812,-2.540476 0.399108,-0.431742 0.877932,-0.773129 1.325353,-1.151962 0.613646,-0.5071 1.297448,-0.909627 1.991453,-1.296739 0.654931,-0.312891 1.313688,-0.607681 2.023086,-0.776112 0.638611,-0.178957 1.283525,-0.335786 1.928942,-0.487802 0.649049,-0.116263 1.297366,-0.239625 1.951791,-0.32194 0.45297,-0.04486 0.905439,-0.127349 1.360705,-0.125291 z" />
      <path
         style="display:inline;opacity:1;fill:#000000;fill-opacity:1;stroke-width:2;stroke-linejoin:round"
         id="path12"
         d="m 84.703334,40.100932 c -0.554056,0.02678 -1.109363,0.02334 -1.663946,0.01913 -0.552791,-0.02744 -1.080479,0.09971 -1.578094,0.331476 -0.494474,0.189 -0.920168,0.499655 -1.353272,0.79602 -0.531614,0.436695 -1.103948,0.81639 -1.609828,1.283544 -0.716233,0.565626 -1.446321,1.107157 -2.116397,1.728102 -0.520578,0.430472 -0.984483,0.922102 -1.414661,1.441344 -0.676743,0.716442 -1.141029,1.584553 -1.662345,2.411643 -0.405763,0.593661 -0.735021,1.215326 -0.916152,1.911696 -0.106767,0.452771 -0.109445,0.917456 -0.09195,1.379377 0.02529,0.810122 0.104336,1.619625 0.220422,2.421636 0.104503,0.7557 0.185164,1.272304 0.593299,1.925317 0.354534,0.455827 0.759323,0.867616 1.131896,1.308875 0.301447,0.388477 0.60049,0.776182 0.924673,1.146098 0.360971,0.410361 0.811456,0.733066 1.238668,1.071568 0.563981,0.455822 1.089454,0.95327 1.667159,1.392246 1.558464,1.174816 3.278158,2.027211 4.961106,3.036191 1.020789,0.611995 -2.063186,-1.187209 -3.094778,-1.780812 1.475362,1.351862 3.100602,1.772816 4.74077,2.584624 0.583239,0.237334 1.219782,0.255117 1.840362,0.284658 0.753562,0.07788 1.483413,-0.139513 2.189604,-0.381514 0.852366,-0.267451 1.695858,-0.558802 2.476873,-0.996455 0.735545,-0.350724 1.294892,-0.803685 1.817534,-1.420275 0.541721,-0.795698 1.153899,-1.542214 1.66886,-2.355387 0.404227,-0.597718 0.685294,-1.25702 0.996931,-1.903519 0.44145,-0.739468 0.630992,-1.572061 0.784659,-2.410166 0.162227,-0.966589 0.129307,-1.950299 0.113522,-2.926135 0.0067,-0.806734 -0.03119,-1.610286 -0.129458,-2.410992 -0.126309,-0.913588 -0.427045,-1.785874 -0.766183,-2.639036 -0.441036,-0.850623 -0.961694,-1.655472 -1.491993,-2.452111 -0.434163,-0.677415 -0.88841,-1.346094 -1.454179,-1.920158 -0.61849,-0.574228 -1.304724,-1.065493 -1.991963,-1.552377 -1.211361,-0.699121 -2.407804,-1.424752 -3.634084,-2.097362 -0.0975,-0.05348 -0.754851,-0.212487 -0.858711,-0.24011 -0.367487,-0.09774 -0.731258,-0.195974 -1.102855,-0.277196 -0.650075,-0.09783 -1.3117,-0.102901 -1.968195,-0.114683 -0.615802,0.02357 -1.197092,0.160395 -1.745501,0.438549 -0.363316,0.207209 -0.187698,0.09701 -0.527278,0.329907 0,0 3.271033,2.094891 3.271033,2.094891 v 0 c 0.308491,-0.198062 0.145598,-0.105622 0.490133,-0.274751 0.53331,-0.19962 1.069972,-0.33764 1.647126,-0.302731 0.640332,0.0092 1.285002,0.0263 1.91193,0.170804 0.490003,0.1113 0.995185,0.219803 1.464889,0.401389 0.972071,0.375801 4.12323,2.355255 -2.53329,-1.534869 0.704649,0.459256 1.3911,0.948288 2.022491,1.505574 0.09723,0.07839 0.202382,0.147868 0.291708,0.235165 0.0793,0.0775 0.139631,0.172299 0.211561,0.256677 0.366522,0.429959 0.721863,0.872186 1.016595,1.356027 0.526445,0.779428 1.029457,1.572411 1.510676,2.380916 0.364604,0.810927 0.65631,1.65998 0.800105,2.539741 0.106373,0.790152 0.133414,1.583582 0.154281,2.380022 0.03497,0.952172 0.102193,1.916563 -0.06124,2.860382 -0.160983,0.800769 -0.337154,1.599647 -0.788472,2.295294 -0.302371,0.633617 -0.574937,1.281684 -0.928484,1.889758 -0.509077,0.794469 -1.067374,1.554083 -1.66053,2.287963 -0.509325,0.538104 -1.064779,0.999482 -1.745522,1.310854 -0.771001,0.409671 -1.583344,0.69478 -2.420342,0.940562 -0.70539,0.189265 -1.409944,0.33532 -2.144271,0.243549 -0.611444,-0.05 -1.221872,-0.125878 -1.773267,-0.416666 -1.405128,-0.627493 -3.976171,-2.039212 1.937084,1.239108 -1.183532,-0.683959 -2.354538,-1.390066 -3.550597,-2.051873 -1.020348,-0.564581 2.014175,1.175829 3.023354,1.760138 0.10882,0.06301 -0.216829,-0.127566 -0.322197,-0.196191 C 82.350712,62.594169 82.01525,62.30249 81.632144,62.07697 81.047047,61.676412 80.540541,61.196788 80.012428,60.725944 79.599241,60.386282 79.172778,60.06453 78.760639,59.726305 78.443375,59.346943 78.093029,58.998209 77.824935,58.578953 77.655956,58.377989 77.497651,58.164089 77.322086,57.969006 76.97554,57.583934 77.24885,57.91904 76.878639,57.535434 76.80589,57.460049 76.741138,57.377337 76.672386,57.29829 76.495994,57.075352 76.31214,56.849194 76.202946,56.582955 76.061934,56.239134 76.043088,55.861354 75.953735,55.504294 75.805347,54.73615 75.764146,53.949933 75.76264,53.168549 c 0.01587,-0.433408 -5.29e-4,-0.869286 0.05849,-1.300083 0.121394,-0.669533 0.405641,-1.274834 0.773377,-1.846601 0.488477,-0.829911 0.971526,-1.66806 1.679673,-2.335787 0.422389,-0.503795 0.9153,-0.942858 1.373812,-1.413197 0.65232,-0.632402 1.376323,-1.175375 2.108462,-1.711844 0.528296,-0.423942 1.078111,-0.819298 1.625899,-1.217181 0.422995,-0.275164 0.844015,-0.550738 1.31966,-0.728959 0.476009,-0.175059 0.972293,-0.227108 1.478674,-0.212545 0.572159,-0.0044 1.144884,-0.0064 1.716585,0.01913 z" />
      <path
         style="fill:#000000;fill-opacity:1;stroke-width:2;stroke-linejoin:round"
         id="path13"
         d="m 28.533939,49.642013 c -0.346877,0.452914 -0.67849,0.907619 -0.907415,1.432402 -0.190167,0.386691 -0.292833,0.781018 -0.277447,1.211032 0.01775,0.06849 0.02461,0.140793 0.05327,0.205481 0.0467,0.105346 0.188069,0.296894 0.289978,0.357806 2.413715,1.442662 2.39213,1.926106 4.089829,2.133624 0.66666,0.0931 1.018884,-0.03669 1.554488,-0.41919 0.474694,-0.361373 0.667215,-0.897517 0.833821,-1.4474 0.179498,-0.485413 0.04909,-0.907863 -0.18161,-1.342978 -1.053634,-1.175271 -0.115044,-0.162449 -3.66104,-2.225061 -0.196157,-0.114099 -0.403159,-0.152254 -0.625054,-0.175583 -0.314222,-0.0069 -0.634828,-0.04458 -0.945041,0.01519 -0.415309,0.256633 -0.399026,0.662255 -0.206979,1.065586 0.251138,0.314571 0.520068,0.61545 0.807443,0.897337 0.186224,0.148333 0.09179,0.07112 0.282985,0.231989 0,0 3.658954,1.422927 3.658954,1.422927 v 0 c -0.219382,-0.09965 -0.118927,-0.03464 -0.300852,-0.195832 -0.338347,-0.211645 -0.567542,-0.532746 -0.847339,-0.81136 -0.03337,-0.02392 -0.492974,-0.338498 -0.179615,-0.323797 0.290695,0.0047 0.585568,0.0049 0.868315,0.08129 0.139131,0.04807 0.263345,0.104828 0.391784,0.177067 0.048,0.02699 0.190625,0.110334 0.143156,0.08243 -3.209692,-1.886775 -4.268735,-2.414344 -2.99098,-1.771885 0.0523,0.03599 0.116311,0.05914 0.156903,0.107955 0.03441,0.04138 0.233961,0.434208 0.248026,0.494112 0.02778,0.118314 -0.02048,0.29726 -0.04129,0.406961 -0.119669,0.464002 -0.274405,0.921025 -0.680837,1.21094 -0.439367,0.249198 -0.88827,0.296735 -1.380466,0.174842 -0.09237,-0.02646 -0.187206,-0.04547 -0.277109,-0.07937 -0.07945,-0.02996 -0.302072,-0.154821 -0.229034,-0.111514 5.611517,3.327107 3.82007,2.325868 2.705026,1.566323 -0.130405,-0.356108 0.0077,-0.700521 0.14885,-1.033896 0.183739,-0.497494 0.477244,-0.929897 0.859231,-1.299546 z" />
      <path
         style="fill:#000000;fill-opacity:1;stroke-width:2;stroke-linejoin:round"
         id="path14"
         d="m 85.432013,49.704474 c -0.275879,0.395086 -0.627695,0.722505 -0.867752,1.14442 -0.163658,0.407654 -0.315968,0.820592 -0.470037,1.232646 -0.141187,0.401884 -0.187825,0.821728 -0.09091,1.237208 0.568139,1.310309 3.208596,2.021814 3.686288,2.283076 0.146788,0.08028 0.370409,-0.0335 0.498316,-0.09121 0.336355,-0.224496 0.418595,-0.631333 0.472268,-1.006599 -0.0068,-0.277101 0.106987,-0.517308 0.191305,-0.773031 0.05787,-0.21886 0.03195,-0.107857 0.07748,-0.333081 0,0 -3.472543,-1.851046 -3.472543,-1.851046 v 0 c -0.03279,0.193199 -0.01331,0.09862 -0.05792,0.283845 -0.09232,0.279789 -0.241472,0.5407 -0.223001,0.847167 -0.01601,0.192984 0.0011,0.539432 -0.233736,0.591896 -0.157932,-0.01426 -0.470384,-0.178376 -0.34798,-0.106799 4.321567,2.527099 4.310197,2.312641 2.990104,1.790113 -0.243478,-0.285316 -0.153943,-0.638847 -0.05854,-0.973005 0.133212,-0.396571 0.293698,-0.783643 0.420602,-1.181881 0.233201,-0.411226 0.57399,-0.739804 0.894924,-1.083019 z" />
      <path
         style="fill:#000000;fill-opacity:1;stroke-width:2;stroke-linejoin:round"
         id="path15"
         d="m 50.02114,62.918384 c 0.114925,0.620797 0.269095,1.228164 0.457647,1.830972 0.238803,0.792192 0.641194,1.510208 1.156237,2.152367 0.450866,0.539525 1.002377,0.981551 1.561172,1.403326 0.540676,0.423225 1.095073,0.824926 1.675124,1.19225 2.132748,1.291135 3.223223,2.306071 5.444485,2.37155 0.678042,0.03438 1.325885,-0.111582 1.962465,-0.32898 0.540409,-0.18691 1.038481,-0.42164 1.467868,-0.802156 0.617339,-0.48302 1.274504,-0.905856 1.917383,-1.352931 0.566195,-0.333735 1.044691,-0.780875 1.471414,-1.276326 0.299836,-0.357526 0.577964,-0.732316 0.788046,-1.149736 0.156628,-0.426694 0.390839,-0.80831 0.624802,-1.195904 0.122807,-0.208063 0.216652,-0.429818 0.329743,-0.642942 0,0 -3.402642,-1.936602 -3.402642,-1.936602 v 0 c -0.09789,0.208999 -0.178973,0.425021 -0.293026,0.626176 -0.242856,0.39702 -0.516793,0.769085 -0.668711,1.214191 -0.180782,0.394875 -0.445712,0.740342 -0.714473,1.079291 -0.393345,0.478592 -0.856663,0.888818 -1.382511,1.218425 -0.63889,0.474176 -1.314466,0.897279 -1.968662,1.349933 -0.417488,0.312021 -0.880554,0.531548 -1.379318,0.685155 -0.604205,0.180152 -1.216358,0.285908 -1.850194,0.22987 -0.383431,-0.04134 -0.755557,-0.103169 -1.127331,-0.209553 -1.302946,-0.372843 -3.187769,-1.803725 2.394736,1.529982 -0.571148,-0.381153 -1.173401,-0.716034 -1.695395,-1.169141 -0.5554,-0.427825 -1.134941,-0.8275 -1.623256,-1.336558 -0.0186,-0.02122 -0.508788,-0.579342 -0.527015,-0.60543 -0.07414,-0.106117 -0.12495,-0.226761 -0.187574,-0.340059 -0.190251,-0.344196 -0.380428,-0.688943 -0.498858,-1.066424 -0.178441,-0.571614 -0.373582,-1.136269 -0.370862,-1.743369 z" />
      <path
         style="fill:#000000;fill-opacity:1;stroke-width:2;stroke-linejoin:round"
         id="path16"
         d="m 47.497206,20.930195 c -0.323147,0.435275 -0.642454,0.872637 -0.941594,1.324956 -0.271412,0.40947 -0.607319,0.767708 -0.910707,1.151621 -0.219249,0.215129 -0.374329,0.478266 -0.534746,0.73755 -0.161261,0.270852 -0.195914,0.553144 -0.09308,0.849474 0.03233,0.05487 0.0559,0.115967 0.097,0.164625 0.04366,0.05169 0.09532,0.0985 0.153881,0.132395 1.168948,0.676619 2.34758,1.336403 3.525475,1.997319 0.174258,0.09778 0.373251,0.157255 0.561801,0.219517 0.509161,0.210778 1.031306,0.38204 1.554549,0.553402 0.491169,0.177359 1.011015,0.178917 1.52269,0.246433 0.693047,0.05992 1.376836,0.186492 2.067618,0.266047 0.565557,0.097 1.148683,0.102783 1.708325,0.234468 0.16352,-0.0454 0.273917,-0.262982 0.24965,-0.427479 -0.0094,-0.06395 -0.149942,-0.338365 -0.179591,-0.421312 -0.0883,-0.372986 -0.187095,-0.734584 -0.357775,-1.079143 -0.26411,-0.455065 -0.570053,-0.883357 -0.845696,-1.331334 -0.269221,-0.442914 -0.461547,-0.926626 -0.769429,-1.345009 -0.198959,-0.268095 -0.459407,-0.466676 -0.732002,-0.653066 -0.21912,-0.164712 -0.447982,-0.32996 -0.63351,-0.53324 -0.0815,-0.103641 -0.201896,-0.179702 -0.28457,-0.281312 -0.116404,-0.170821 -0.05433,-0.08916 -0.185918,-0.245235 -1.031719,-1.39598 -1.127262,-0.91178 -3.840043,-2.460855 -0.319815,-0.03075 -0.422331,0.27046 -0.555051,0.502168 -0.03865,0.06747 -0.08131,0.132567 -0.121962,0.198851 -0.304292,0.584973 -0.691621,1.119687 -1.045438,1.674516 -0.253058,0.356489 -0.381645,0.681264 -0.394975,1.116034 0.0038,0.276422 0.0423,0.548977 0.02817,0.825386 -0.203409,1.892889 0.06489,0.74465 3.517339,2.614688 0.558927,-0.02101 0.975879,-0.246221 1.449658,-0.515273 0.433078,-0.255083 0.802227,-0.60256 1.165682,-0.946255 0.207669,-0.237557 0.403585,-0.486211 0.602001,-0.732146 1.035201,-1.336155 -1.832424,-2.836628 -3.317676,-2.488737 -0.284877,-0.0051 -0.453795,0.109715 -0.603224,0.3468 -0.126788,0.278625 -0.07814,0.577272 -0.04925,0.870355 0.03044,0.261612 0.105391,0.514481 0.144256,0.774995 0.03619,0.266443 0.02596,0.533879 0.09619,0.794614 0.839737,1.254619 1.63962,1.264678 3.647424,2.285149 0.02625,0.01334 0.299482,-0.267621 0.328149,-0.296244 0.03764,-0.03486 0.07529,-0.06973 0.112935,-0.104598 0,0 -3.32463,-2.075464 -3.32463,-2.075464 v 0 c -0.03453,0.02623 -0.06907,0.05246 -0.103602,0.0787 -0.02487,0.0062 -0.05492,0.03511 -0.07463,0.0187 -0.02498,-0.02078 -0.04633,-0.111615 -0.01799,-0.09577 1.111078,0.621169 2.197391,1.285634 3.296087,1.928451 -0.09665,-0.04132 -0.186375,-0.08168 -0.250328,-0.170257 -0.02827,-0.01019 -0.06077,-0.01252 -0.0848,-0.03057 -0.12586,-0.09454 -0.0912,-0.454998 -0.103994,-0.59085 -0.02384,-0.260924 -0.06253,-0.521089 -0.151067,-0.769008 -0.0196,-0.204979 -0.06365,-0.418686 -0.05495,-0.620877 0.06002,-0.06881 0.270643,0.04049 0.343202,0.05119 0.900644,1.016993 0.364927,0.400913 -3.27215,-1.9466 -0.01127,-0.0073 0.174506,-0.181657 0.112885,-0.0493 -0.01275,0.0274 -0.03054,0.05217 -0.04581,0.07826 -0.179155,0.236751 -0.350433,0.478068 -0.529529,0.71407 -0.32815,0.328272 -0.680636,0.638481 -1.083808,0.871687 -0.430403,0.218598 -0.873056,0.383111 -1.363641,0.294509 1.074338,0.632875 2.166093,1.23707 3.223011,1.898624 0.03254,0.02037 -0.06272,0.05118 -0.100851,0.05562 -0.09054,0.01053 -0.049,-0.389198 -0.04031,-0.436088 0.0402,-0.290748 0.05022,-0.573774 -0.0019,-0.864836 -0.01156,-0.129212 -0.03564,-0.27442 -0.01029,-0.403623 0.0389,-0.198305 0.148167,-0.379643 0.227648,-0.562014 0.312094,-0.568919 0.690554,-1.09601 1.054872,-1.631739 0.0059,-0.0073 0.254207,-0.352588 0.306517,-0.332535 0.03671,0.01407 0.08463,0.136112 0.140872,0.121602 -1.10115,-0.635812 -2.207019,-1.263517 -3.303449,-1.907435 -0.02734,-0.01606 0.06332,0.0096 0.0926,0.02175 0.160263,0.06664 0.23173,0.243258 0.359733,0.349128 0.0286,0.0412 0.05388,0.08491 0.08581,0.123586 0.02503,0.03033 0.0623,0.04995 0.08431,0.08254 0.02167,0.03207 0.02553,0.07343 0.04398,0.107441 0.05851,0.107798 0.165966,0.148875 0.222301,0.258647 0.225425,0.197874 -0.0371,-0.04333 0.184642,0.199021 0.135088,0.147647 0.314142,0.248065 0.445267,0.399764 0.121611,0.08961 0.247952,0.186519 0.376592,0.265479 0.04459,0.02737 0.09735,0.04062 0.140084,0.07081 0.09964,0.07041 0.164833,0.183608 0.278841,0.237109 0.08582,0.08808 0.221049,0.221239 0.294138,0.319588 0.223006,0.300083 0.338995,0.666173 0.546854,0.976036 0.232852,0.45823 0.534061,0.870701 0.797033,1.31129 0.196221,0.301854 0.331759,0.631234 0.379929,0.990708 0.02535,0.10891 0.045,0.219252 0.07507,0.326956 0.0085,0.03053 0.006,0.07274 0.03306,0.08914 0.02159,0.01307 0.110326,-0.08995 0.191336,-0.225493 0.0046,-0.0076 -0.0056,-0.01685 -0.0084,-0.0253 -0.519608,0.02455 -1.039159,-0.07765 -1.553515,-0.131315 -0.70255,-0.117761 -1.405477,-0.221468 -2.113957,-0.296917 -0.513106,-0.0697 -1.021374,-0.157123 -1.512541,-0.327157 -0.529338,-0.173567 -1.051293,-0.366187 -1.564928,-0.582363 -0.244025,-0.102628 -0.138967,-0.05673 -0.36336,-0.157229 -0.06102,-0.02733 -0.24062,-0.116021 -0.183002,-0.0821 5.704543,3.357997 4.072358,2.10478 2.847808,1.716009 -0.04625,-0.046 -0.111448,-0.07753 -0.141044,-0.135658 -0.05636,-0.110694 0.0047,-0.248382 0.0501,-0.347531 0.140796,-0.259642 0.298424,-0.499546 0.50055,-0.716485 0.260286,-0.41555 0.571187,-0.797012 0.831106,-1.212767 0.296603,-0.446521 0.617215,-0.870458 1.043212,-1.203283 z" />
      <path
         style="fill:#000000;fill-opacity:1;stroke-width:2;stroke-linejoin:round"
         id="path17"
         d="m 89.447252,28.081861 c -0.02957,0.03749 -0.05665,0.07709 -0.0887,0.112483 -0.189402,0.209166 -0.0039,-0.03236 -0.204465,0.207152 -0.132675,0.158454 -0.234857,0.342837 -0.3507,0.513472 -0.244028,0.421762 -0.535545,0.809948 -0.822129,1.203034 -0.161562,0.305186 -0.382167,0.56937 -0.555924,0.865968 -0.162182,0.271116 -0.297275,0.556448 -0.461214,0.826564 -0.172971,0.228978 -0.302736,0.493839 -0.481118,0.718066 -0.161975,0.181684 -0.288412,0.389072 -0.433671,0.583731 -0.152794,0.212223 -0.210298,0.459978 -0.241011,0.714661 -0.03995,0.293629 0.03846,0.571775 0.15835,0.836403 2.228975,1.63815 2.391984,1.803784 4.005961,2.163191 0.273984,0.06101 0.548685,0.102894 0.820957,0.172218 0.415433,0.123195 0.845746,0.14864 1.275533,0.166899 0.316489,-0.01714 0.618241,0.07283 0.929317,0.112199 0.257014,0.05597 0.469985,-0.02469 0.699259,-0.126164 0.02901,-0.0063 0.06124,-0.0041 0.08702,-0.01884 0.05175,-0.02952 0.09176,-0.0762 0.140266,-0.110794 0.165018,-0.1177 0.332176,-0.239168 0.509154,-0.338469 0.236775,-0.05 0.325813,-0.272497 0.488463,-0.41702 0.231465,-0.185777 0.286906,-0.464812 0.313573,-0.744617 0.0081,-0.466598 -0.07233,-0.921731 -0.164893,-1.376534 -0.07062,-0.444498 -0.227013,-0.858563 -0.441746,-1.251435 -0.195577,-0.364603 -0.449776,-0.692242 -0.675542,-1.038359 -0.224586,-0.370687 -0.447321,-0.742728 -0.598141,-1.150075 -0.115917,-0.372245 -0.193765,-0.754976 -0.323929,-1.12272 -0.611577,-1.358239 -0.12786,-0.364027 -3.54043,-2.136955 -0.06374,-0.03311 -0.484473,0.386323 -0.540221,0.44803 -0.197236,0.241792 -0.348252,0.50964 -0.478596,0.792043 -0.279239,0.491921 -0.486294,1.022977 -0.70461,1.544143 -0.240942,0.506494 -0.592997,0.960998 -0.752845,1.502431 -0.05483,0.422322 0.02795,0.571981 0.28665,0.878181 1.019667,1.050803 0.03862,0.05672 3.562365,2.087766 0.130673,0.07532 0.239628,0.122785 0.390205,0.145389 0.09063,0.0063 0.377672,-0.04251 0.456049,-0.07823 0.116851,-0.05327 0.172009,-0.13488 0.256281,-0.227571 0.256908,-0.316259 0.419185,-0.703403 0.578157,-1.076336 0.02005,-0.05517 0.04149,-0.109847 0.06014,-0.165504 0.04489,-0.134009 0.03723,-0.128546 0.07237,-0.248222 0.006,-0.02035 0.03826,-0.05041 0.01963,-0.06052 -3.540937,-1.919798 -2.777127,-2.92974 -3.626784,-1.684915 -0.294068,0.460227 -0.590677,0.918684 -0.924536,1.351304 -0.169709,0.220057 -0.276598,0.301702 -0.546354,0.298135 -0.05722,-0.0186 -0.153305,0.01728 -0.207036,-0.01844 -0.0065,-0.0043 -0.0087,-0.02748 -0.0024,-0.02315 3.369943,2.273212 2.017716,1.908162 3.341908,2.261573 0.260947,-0.135255 0.474083,-0.329406 0.656137,-0.556768 0.271211,-0.286027 0.434094,-0.648234 0.658625,-0.966435 0.156839,-0.203417 0.32626,-0.397447 0.525155,-0.560517 0.31463,-0.17784 -0.12606,0.06405 0.181676,-0.08249 1.523696,-0.725562 -3.187588,-2.014887 -3.213039,-2.028722 -0.08695,0.380418 -0.32477,0.700604 -0.517583,1.032627 -0.114773,0.221945 -0.269581,0.419811 -0.5178,0.486973 -0.194154,0.02928 -0.370737,0.121182 -0.546473,0.203433 -0.194477,0.05444 -0.34014,0.20909 -0.495057,0.33147 -0.07333,0.04563 -0.03684,0.0278 -0.108296,0.05584 0,0 3.328696,2.147657 3.328696,2.147657 v 0 c 0.08705,-0.06888 0.04415,-0.03349 0.128675,-0.106204 0.13263,-0.113731 0.277143,-0.189423 0.440783,-0.249431 0.174696,-0.08247 0.367612,-0.124886 0.538694,-0.217204 0.271753,-0.178043 0.469588,-0.420478 0.603364,-0.718055 0.192987,-0.387377 0.428109,-0.751322 0.63623,-1.13048 -2.363872,-1.427168 -2.491073,-2.876846 -3.796263,-1.794134 -0.208375,0.202715 -0.411916,0.406812 -0.561689,0.658889 -0.190693,0.317685 -0.340442,0.661172 -0.624864,0.912058 -0.168704,0.16029 -0.350306,0.315272 -0.587912,0.352872 -1.287589,0.649764 -0.162613,0.0431 3.146515,2.337602 0.0067,0.0047 0.0034,-0.0176 0.01005,-0.02233 0.0109,-0.0078 0.02529,-0.0088 0.03827,-0.01206 0.05937,-0.01479 0.120457,-0.02228 0.17871,-0.04189 0.295222,-0.108633 0.493427,-0.314241 0.646322,-0.588158 0.280638,-0.45075 0.569328,-0.903362 0.919123,-1.303367 1.116414,-1.021691 0.235886,-0.127466 -3.230105,-2.146342 -0.01416,-0.0083 0.01161,0.03092 0.01394,0.04714 0.01709,0.12019 -0.0052,0.239549 -0.04238,0.353764 -0.109479,0.325149 -0.249256,0.659239 -0.507243,0.895017 -0.161491,0.07463 -0.345151,0.04478 -0.499531,-0.03619 -1.862298,-1.000945 4.275429,2.281595 2.80374,1.666785 -0.286637,-0.187637 0.07964,0.06268 -0.197501,-0.163009 -0.177742,-0.144749 -0.228746,-0.09714 -0.287499,-0.36698 0.01119,-0.505558 0.4392,-1.007459 0.616855,-1.46885 0.246793,-0.500933 0.471387,-1.010449 0.78468,-1.475261 0.137284,-0.232394 0.271883,-0.468003 0.43851,-0.681014 0.05682,-0.05094 0.171519,-0.178017 0.265914,-0.139078 0.0231,0.0095 0.06943,0.07031 0.04779,0.05779 -3.4213,-1.978663 -4.473257,-2.290689 -3.137469,-1.880376 0.230283,0.316699 0.270495,0.711309 0.376939,1.080519 0.06238,0.209574 0.117745,0.42803 0.21645,0.624509 0.09183,0.182782 0.136049,0.206542 0.24053,0.38639 0.0429,0.07385 0.07869,0.151604 0.118026,0.227404 0.108828,0.187558 0.210865,0.378928 0.333989,0.557726 0.07181,0.104275 0.162901,0.194389 0.234328,0.298926 0.03428,0.05017 0.05775,0.106931 0.08662,0.160396 0.221345,0.362796 0.442838,0.720307 0.524391,1.146257 0.07449,0.420843 0.181083,0.841107 0.164287,1.27137 0.0024,0.213982 -0.052,0.349822 -0.221837,0.482989 -0.122158,0.148492 -0.226094,0.269478 -0.410517,0.34883 -0.223877,0.161163 -0.436335,0.329223 -0.713094,0.385439 -0.18556,0.05677 -0.376018,0.0036 -0.564211,-0.01926 -0.305239,-0.0457 -0.609409,-0.06358 -0.918178,-0.06559 -0.40844,-0.0305 -0.810411,-0.101936 -1.208887,-0.19649 -0.270925,-0.05354 -0.539107,-0.107759 -0.804706,-0.184496 -1.311627,-0.378945 -2.980111,-1.743549 2.667185,1.7165 -0.193971,-0.106492 -0.306117,-0.331849 -0.292986,-0.552127 0.01098,-0.185809 0.025,-0.371629 0.136213,-0.528733 0.143007,-0.197004 0.269761,-0.40509 0.430829,-0.58824 0.166542,-0.244925 0.300254,-0.51112 0.46709,-0.756314 0.175844,-0.269886 0.323665,-0.554612 0.484992,-0.833038 0.07461,-0.135848 0.166819,-0.253164 0.249766,-0.383654 0.13738,-0.216114 0.05144,-0.09656 0.157864,-0.309462 0.02841,-0.05682 0.06146,-0.111197 0.0922,-0.166793 0.263679,-0.406284 0.572429,-0.780029 0.820021,-1.196597 0.195019,-0.25917 0.398489,-0.517253 0.662747,-0.710123 z" />
    </g>
  </g>
</svg>
